<svg width="191" height="64" viewBox="0 0 191 64" xmlns="http://www.w3.org/2000/svg"><title>29C2DE9B-7ED3-4AFD-BB11-17C5FBA60AA0</title><defs><filter x="-50%" y="-50%" width="200%" height="200%" filterUnits="objectBoundingBox" id="a"><feOffset in="SourceAlpha" result="shadowOffsetOuter1"/><feGaussianBlur stdDeviation="3.5" in="shadowOffsetOuter1" result="shadowBlurOuter1"/><feColorMatrix values="0 0 0 0 0.184738767 0 0 0 0 0.146277727 0 0 0 0 0.444249575 0 0 0 1 0" in="shadowBlurOuter1" result="shadowMatrixOuter1"/><feMerge><feMergeNode in="shadowMatrixOuter1"/><feMergeNode in="SourceGraphic"/></feMerge></filter></defs><g filter="url(#a)" transform="translate(7 7)" fill="#FFF" fill-rule="evenodd"><path d="M87.146 13.34l-2.853-1.79.837 3.64c.124.542.665.98 1.215.98h6.656c.547 0 1.093-.442 1.216-.98l.836-3.64-2.852 1.79-2.528-3.323-2.527 3.323z"/><path d="M104.604 6.675l-.94-.361c.322.421 1.01 1.434 1.937 2.842l.083.125a360.316 360.316 0 0 1 2.118 3.26l.04-1.097c-.09.12-.237.332-.421.624a15.715 15.715 0 0 0-.885 1.604c-1.163 2.434-1.65 4.947-1.044 7.349.063.249.137.495.224.738 1.092 3.057 1.684 5.468 1.754 7.842.09 3.057-.77 5.586-2.806 7.58-1.473 1.438-3.739 2.988-6.583 4.583a85.388 85.388 0 0 1-5.943 3.012 162.384 162.384 0 0 1-2.842 1.265l.485.83.36-.892a82.873 82.873 0 0 1-6.473-2.982c-3.76-1.937-6.83-3.917-8.77-5.816-2.036-1.994-2.896-4.523-2.805-7.58.07-2.374.662-4.785 1.754-7.842.087-.243.161-.489.224-.738.607-2.402.119-4.915-1.045-7.349a15.715 15.715 0 0 0-.884-1.604 9.902 9.902 0 0 0-.422-.624l.041 1.097a224.123 224.123 0 0 1 .657-1.018c.494-.765.992-1.529 1.46-2.242l.084-.125c.927-1.408 1.614-2.421 1.936-2.842l-.94.361c2.633.49 7.252.347 10.625-.484.54-.133 1.204-.412 1.987-.81.233-.12.473-.247.72-.383a36.064 36.064 0 0 0 2.014-1.2l-1.037.005.174.11c.136.083.29.177.458.277.481.288.984.575 1.487.845.273.146.539.283.795.41.819.402 1.516.683 2.083.814 3.335.771 7.792.89 10.34.416zM93.031 3.72a23.976 23.976 0 0 1-.737-.38 35.083 35.083 0 0 1-1.998-1.16.962.962 0 0 0-1.037.005 33.832 33.832 0 0 1-2.561 1.482c-.663.338-1.212.568-1.575.658-3.109.766-7.451.9-9.813.46a.962.962 0 0 0-.94.362c-.36.472-1.06 1.501-2.015 2.952l-.083.127a362.181 362.181 0 0 0-2.13 3.278.962.962 0 0 0 .041 1.097c.012.015.04.055.083.116.074.107.159.234.25.378.264.418.528.891.775 1.408.988 2.066 1.394 4.155.915 6.048-.047.19-.104.377-.17.562-1.154 3.23-1.788 5.813-1.866 8.432-.105 3.56.932 6.611 3.383 9.01 2.108 2.064 5.319 4.135 9.235 6.152a84.779 84.779 0 0 0 6.633 3.057.962.962 0 0 0 .846-.062c-.913.533 5.442-2.4 8.755-4.26 2.978-1.67 5.368-3.305 6.973-4.872 2.466-2.414 3.503-5.465 3.397-9.025-.077-2.62-.711-5.201-1.865-8.432a6.142 6.142 0 0 1-.17-.562c-.479-1.893-.073-3.982.914-6.048a13.803 13.803 0 0 1 1.026-1.786c.042-.061.07-.1.083-.116a.962.962 0 0 0 .04-1.097 225.885 225.885 0 0 0-.66-1.025c-.497-.768-.998-1.536-1.47-2.253l-.083-.127c-.955-1.45-1.654-2.48-2.014-2.952a.962.962 0 0 0-.94-.361c-2.285.424-6.475.312-9.556-.4-.391-.09-.97-.323-1.666-.666z"/><path d="M106.219 3.853l-.376-.144c.384.502 1.317 1.94 2.618 4.016l.107.17a493.743 493.743 0 0 1 2.672 4.318c.05.082.126-.383.126-.383-.094.088-.25.25-.45.483-.329.382-.657.824-.963 1.32-1.39 2.257-1.876 4.813-.91 7.521 2.546 7.128 2.34 13.564-2.149 17.958-1.698 1.658-4.275 3.42-7.5 5.23a96.087 96.087 0 0 1-6.69 3.39c-1.33.614-3.163 1.41-3.117 1.383l.194.332.144-.356a93.288 93.288 0 0 1-7.29-3.36c-4.257-2.193-7.739-4.438-9.967-6.62-4.488-4.393-4.694-10.83-2.149-17.957.967-2.708.482-5.264-.909-7.52a10.427 10.427 0 0 0-.963-1.321 6.497 6.497 0 0 0-.45-.483l.065.482a412.454 412.454 0 0 1 .848-1.38c.638-1.036 1.28-2.071 1.885-3.037l.107-.17c1.301-2.076 2.234-3.514 2.618-4.016l-.376.144c2.845.529 7.906.373 11.58-.532.54-.133 1.241-.427 2.074-.851.253-.13.515-.269.784-.417A39.62 39.62 0 0 0 89.991.738l-.416.002.188.117A40.636 40.636 0 0 0 91.9 2.09c.298.16.588.31.868.447.87.429 1.607.725 2.178.857 3.635.84 8.52.97 11.273.46zM93.107 1.847a27.476 27.476 0 0 1-.844-.435A39.88 39.88 0 0 1 89.987.09a.385.385 0 0 0-.415.002l-.171.11a38.865 38.865 0 0 1-1.99 1.177c-.262.145-.517.28-.763.405-.783.4-1.438.674-1.907.79-3.569.879-8.52 1.031-11.257.523a.385.385 0 0 0-.376.145c-.404.53-1.34 1.972-2.658 4.074l-.107.17a494.483 494.483 0 0 0-2.677 4.325c-.156.256-.128.457.005.581a7.315 7.315 0 0 1 .392.422c.304.353.608.763.892 1.224 1.278 2.073 1.72 4.394.84 6.857-2.635 7.38-2.42 14.112 2.335 18.767 2.295 2.246 5.833 4.528 10.152 6.753a94.05 94.05 0 0 0 7.355 3.389c.11.044.236.035.338-.025-.093.055 1.676-.714 3.05-1.348a96.837 96.837 0 0 0 6.745-3.418c3.28-1.84 5.905-3.636 7.647-5.336 4.77-4.67 4.986-11.402 2.351-18.782-.88-2.463-.438-4.784.84-6.857.283-.461.588-.87.891-1.224a7.315 7.315 0 0 1 .393-.422.385.385 0 0 0 .065-.481 413.636 413.636 0 0 0-.849-1.383 494.487 494.487 0 0 0-1.888-3.042l-.107-.17c-1.319-2.102-2.254-3.544-2.659-4.074a.385.385 0 0 0-.376-.145c-2.648.492-7.426.365-10.96-.452-.5-.116-1.188-.393-2.01-.798z"/><path d="M93.708 18.604a.962.962 0 1 0 0-1.923h-8.07a.962.962 0 1 0 0 1.923h8.07zM102.366 40.348a.962.962 0 0 0 1.252-1.46L71.923 11.694a.962.962 0 1 0-1.252 1.46l31.695 27.195z"/><path d="M76.05 38.889a.962.962 0 1 0 1.253 1.46l31.695-27.196a.962.962 0 0 0-1.252-1.46L76.05 38.89zM80.322 28.191v1.983c-.511.305-1.114.488-1.646.488-1.462 0-2.617-1.108-2.617-2.532 0-1.413 1.145-2.521 2.607-2.521.746 0 1.513.305 2.065.813l.685-.884c-.706-.61-1.728-.997-2.75-.997-2.167 0-3.833 1.556-3.833 3.59 0 2.033 1.645 3.609 3.761 3.609.982 0 2.055-.376 2.78-.925V28.19h-1.052zM102.183 31.689v-7.117h-1.207v7.117zM124 31.923v-10.77h-2.43v10.77H124zm12.138 0v-10.77h-2.307v6.924l-5.231-6.923h-2.215v10.77h2.323v-6.909l5.215 6.908h2.215zm7.924 0l4.276-10.77h-2.507l-2.954 8.124-2.939-8.123h-2.615l4.23 10.77h2.509zm13.661-8.754v-2.015h-8.2v10.77h8.37v-2.016h-5.94v-2.385h5.2v-2.015h-5.2v-2.339h5.77zm6.015-2.123c-2.492 0-4.169 1.23-4.169 3.185 0 3.815 5.739 2.63 5.739 4.661 0 .662-.6 1.031-1.6 1.031-1.139 0-2.708-.63-3.816-1.615l-.969 1.984c1.215 1.031 2.985 1.708 4.754 1.708 2.385 0 4.215-1.138 4.215-3.246.016-3.877-5.723-2.77-5.723-4.754 0-.585.554-.877 1.37-.877.861 0 2.215.43 3.353 1.108l.939-2.016c-1.077-.707-2.585-1.169-4.093-1.169zm13.8 2.17v-2.062h-9v2.061h3.277v8.708h2.431v-8.708h3.292zM8.308 26.492v2.831c-.693.354-1.462.585-2.108.585-1.908 0-3.4-1.462-3.4-3.37 0-1.892 1.477-3.353 3.385-3.353 1.046 0 2.153.461 2.953 1.2l1.37-1.739c-1.093-.954-2.723-1.57-4.323-1.57-3.354 0-5.877 2.355-5.877 5.462 0 3.124 2.477 5.493 5.738 5.493 1.492 0 3.23-.57 4.37-1.4v-4.139H8.307zm10.846 5.431h2.754l-2.293-3.554c1.308-.615 2.016-1.815 2.016-3.477 0-2.384-1.6-3.738-4.416-3.738h-4.677v10.77h2.431v-3.078h2.477l1.708 3.077zm-4.185-5.108V23.17h2.246c1.339 0 2.108.6 2.108 1.8 0 1.231-.77 1.846-2.108 1.846H14.97zm11.139 5.108v-10.77h-2.431v10.77h2.43zm12.138 0v-10.77h-2.308v6.924l-5.23-6.923h-2.216v10.77h2.323v-6.909l5.216 6.908h2.215zm10.308-8.708v-2.061h-9v2.061h3.277v8.708h2.43v-8.708h3.293zm7.292 6.616l.846 2.092h2.6l-4.6-10.77h-2.507l-4.677 10.77h2.507l.847-2.092h4.984zm-.784-1.954h-3.4l1.707-4.185 1.693 4.185z"/></g></svg>